<svg width="960" height="960" viewBox="0 0 960 960" fill="none" xmlns="http://www.w3.org/2000/svg">
<path d="M0 734.684H960V734.206H0V734.684Z" fill="#EBEBEB"/>
<path d="M800.216 765.588H863.81V765.11H800.216V765.588Z" fill="#EBEBEB"/>
<path d="M619.252 770.799H635.943V770.319H619.252V770.799Z" fill="#EBEBEB"/>
<path d="M761.445 747.759H798.294V747.279H761.445V747.759Z" fill="#EBEBEB"/>
<path d="M100.721 750.987H183.652V750.507H100.721V750.987Z" fill="#EBEBEB"/>
<path d="M200.748 750.987H212.907V750.507H200.748V750.987Z" fill="#EBEBEB"/>
<path d="M252.424 759.093H432.282V758.613H252.424V759.093Z" fill="#EBEBEB"/>
<mask id="mask0_602_92514" style="mask-type:alpha" maskUnits="userSpaceOnUse" x="0" y="0" width="960" height="960">
<path d="M0 -0.000222683H960V960H0V-0.000222683Z" fill="white"/>
</mask>
<g mask="url(#mask0_602_92514)">
<path d="M601.306 481.644H590.289V251.944H601.306V481.644Z" fill="#F5F5F5"/>
<path d="M647.57 334.365H544.021V193.255H647.57V334.365Z" fill="#F5F5F5"/>
<path d="M369.269 491.52L399.175 355.532L505.833 374.304L480.61 512.709L369.269 491.52Z" fill="#EBEBEB"/>
<path d="M270.188 413.284L355.492 394.577L400.879 522.906L296.822 552.463L270.188 413.284Z" fill="#F0F0F0"/>
<path d="M432.151 515.596L444.153 412.12L562.175 419.013L557.953 527.293L432.151 515.596Z" fill="#F5F5F5"/>
<path d="M179.145 727.057H161.264V428.505H145.936V727.057H128.055C124.544 727.057 121.698 729.902 121.698 733.414H185.502C185.502 729.902 182.656 727.057 179.145 727.057Z" fill="#F0F0F0"/>
<path d="M181.717 442.172C174.275 424.973 175.02 405.333 183.745 388.746C190.972 375.009 197.692 360.743 196.198 357.737C193.16 351.614 190.123 348.67 174.918 346.887C164.971 345.719 163.061 339.915 162.928 336.041C162.865 334.119 163.696 332.268 165.117 330.972C179.056 318.265 179.826 289.175 156.26 285.427L156.243 285.024C155.467 285.024 154.714 285.051 153.979 285.097C153.724 285.113 153.476 285.113 153.221 285.097C152.485 285.051 151.733 285.024 150.957 285.024L150.94 285.427C127.373 289.175 128.143 318.265 142.081 330.972C143.503 332.268 144.335 334.119 144.269 336.041C144.139 339.915 142.229 345.719 132.281 346.887C117.077 348.67 114.037 351.614 111 357.737C109.508 360.743 116.228 375.009 123.455 388.746C132.177 405.333 132.924 424.973 125.48 442.172C118.912 457.354 112.167 478.165 110.975 501.416C110.775 505.333 113.955 508.599 117.875 508.599H141.51H165.689H189.322C193.245 508.599 196.424 505.333 196.223 501.416C195.032 478.165 188.287 457.354 181.717 442.172Z" fill="#E0E0E0"/>
<path d="M831.945 727.057H814.064V428.505H798.737V727.057H780.856C777.344 727.057 774.499 729.902 774.499 733.414H838.302C838.302 729.902 835.457 727.057 831.945 727.057Z" fill="#F0F0F0"/>
<path d="M834.517 442.172C827.075 424.973 827.82 405.333 836.545 388.746C843.772 375.009 850.492 360.743 848.998 357.737C845.96 351.614 842.923 348.67 827.718 346.887C817.771 345.719 815.861 339.915 815.728 336.041C815.665 334.119 816.496 332.268 817.917 330.972C831.856 318.265 832.626 289.175 809.06 285.427L809.043 285.024C808.267 285.024 807.514 285.051 806.779 285.097C806.524 285.113 806.276 285.113 806.021 285.097C805.285 285.051 804.533 285.024 803.757 285.024L803.74 285.427C780.174 289.175 780.943 318.265 794.881 330.972C796.303 332.268 797.135 334.119 797.07 336.041C796.939 339.915 795.029 345.719 785.081 346.887C769.877 348.67 766.837 351.614 763.8 357.737C762.308 360.743 769.028 375.009 776.255 388.746C784.977 405.333 785.724 424.973 778.28 442.172C771.712 457.354 764.967 478.165 763.775 501.416C763.575 505.333 766.755 508.599 770.675 508.599H794.31H818.489H842.122C846.045 508.599 849.224 505.333 849.023 501.416C847.832 478.165 841.087 457.354 834.517 442.172Z" fill="#E0E0E0"/>
<path d="M676.178 618.236H234.257V472.293H676.178V618.236Z" fill="#E0E0E0"/>
<path d="M629.175 727.057C625.663 727.057 622.818 729.902 622.818 733.414H686.621C686.621 729.902 683.776 727.057 680.264 727.057H662.383V443.116V428.505H647.056H259.183H243.856V443.116V727.057H225.975C222.463 727.057 219.618 729.902 219.618 733.414H283.421C283.421 729.902 280.576 727.057 277.064 727.057H259.183V443.116H647.056V727.057H629.175Z" fill="#E0E0E0"/>
</g>
<mask id="mask1_602_92514" style="mask-type:alpha" maskUnits="userSpaceOnUse" x="0" y="0" width="960" height="960">
<path d="M0 -0.000222683H960V960H0V-0.000222683Z" fill="white"/>
</mask>
<g mask="url(#mask1_602_92514)">
<path d="M190.107 281.399C199.699 270.918 210.987 262.074 223.682 255.656C259.809 237.397 304.182 240.361 341.154 256.837C378.129 273.312 408.473 301.987 433.692 333.65C453.785 358.877 472.702 387.606 502.435 400.093C542.014 416.715 589.867 397.594 617.177 364.474C647.351 327.875 681.372 267.347 738.023 295.371C829.123 340.439 763.041 504.887 718.7 558.421C674.02 612.363 608.656 647.87 539.632 659.781C470.61 671.691 398.373 660.599 334.409 632.058C246.609 592.883 171.564 515.462 155.616 420.651C150.33 389.232 151.678 356.293 162.782 326.431C168.928 309.903 178.217 294.394 190.107 281.399Z" fill="#407BFF"/>
<mask id="mask2_602_92514" style="mask-type:alpha" maskUnits="userSpaceOnUse" x="152" y="243" width="632" height="422">
<path d="M152.631 243.176H783.658V664.507H152.631V243.176Z" fill="white"/>
</mask>
<g mask="url(#mask2_602_92514)">
<g opacity="0.899994">
<path d="M190.107 281.4C199.699 270.918 210.987 262.075 223.682 255.656C259.809 237.397 304.182 240.361 341.153 256.837C378.129 273.313 408.472 301.988 433.692 333.65C453.784 358.877 472.702 387.606 502.435 400.094C542.014 416.715 589.866 397.594 617.176 364.474C647.351 327.875 681.372 267.347 738.023 295.371C829.123 340.44 763.041 504.888 718.7 558.421C674.02 612.363 608.655 647.87 539.631 659.782C470.609 671.691 398.373 660.6 334.408 632.059C246.609 592.883 171.564 515.463 155.616 420.651C150.33 389.233 151.678 356.293 162.781 326.431C168.927 309.904 178.216 294.394 190.107 281.4Z" fill="#EBFDFE"/>
</g>
</g>
<path d="M852.267 799.177C852.267 811.185 685.598 820.917 480 820.917C274.403 820.917 107.733 811.185 107.733 799.177C107.733 787.17 274.403 777.437 480 777.437C685.598 777.437 852.267 787.17 852.267 799.177Z" fill="#F5F5F5"/>
<path d="M337.729 379.333C355.496 376.148 352.267 439.42 359.221 454.365C366.175 469.307 409.648 507.766 409.648 507.766C409.648 507.766 428.525 509.337 431.528 510.888C434.533 512.439 434.863 523.525 432.41 523.525C429.954 523.525 409.402 523.7 406.303 522.053C403.205 520.403 401.67 513.904 401.67 513.904C401.67 513.904 355.969 487.143 346.538 464.485C338.675 445.596 331.293 412.943 329.202 401.356C327.111 389.771 333.23 380.14 337.729 379.333Z" fill="#EBB376"/>
<path d="M150.688 607.078C150.688 607.078 161.828 595.938 180.058 610.624C198.289 625.308 207.908 645.563 239.05 634.93C270.193 624.295 317.792 654.137 327.413 632.633C327.413 632.633 311.29 590.29 279.95 577.201C248.418 564.037 166.893 594.926 150.688 607.078Z" fill="#26ADB6"/>
<path d="M254.21 543.782C253.924 550.759 253.202 566.015 251.847 581.723C250.061 602.707 247.143 624.499 242.708 628.473C242.264 628.876 241.748 629.339 241.17 629.798C239.002 631.583 235.911 633.945 232.09 636.748C222.45 643.795 208.184 653.625 192.73 664.108C190.541 665.587 188.353 667.065 186.145 668.543C174.584 676.339 162.625 684.307 151.604 691.603C147.284 694.483 143.096 697.267 139.124 699.878C120.327 712.302 106.445 721.228 106.445 721.228L112.609 730.043C112.609 730.043 119.367 726.105 132.385 720.729V720.71C136.013 719.253 139.89 717.582 143.981 715.718C152.122 712.053 161.108 707.692 170.61 702.95C173.415 701.548 176.276 700.129 179.156 698.649C199.969 688.108 222.296 676.031 240.557 664.262C251.482 657.235 260.948 650.303 267.764 643.871C273.428 638.536 277.287 633.542 278.61 629.107C282.663 615.726 286.465 594.508 289.268 573.619C290.681 563.22 291.906 552.936 292.92 543.782H254.21Z" fill="#EBB376"/>
<path d="M109.751 716.07C111.122 715.793 113.839 732.799 113.839 732.799C113.839 732.799 105.679 745.48 105.587 756.029C105.493 766.581 98.2157 762.342 95.6871 751.144C93.1584 739.949 91.2269 731.403 89.4317 723.448C87.6327 715.492 95.5335 718.934 109.751 716.07Z" fill="#26ADB6"/>
<mask id="mask3_602_92514" style="mask-type:alpha" maskUnits="userSpaceOnUse" x="232" y="510" width="65" height="155">
<path d="M232.09 510.758H296.198V664.262H232.09V510.758Z" fill="white"/>
</mask>
<g mask="url(#mask3_602_92514)">
<g opacity="0.199997">
<path d="M296.198 510.757C296.198 510.757 293.606 541.688 289.267 573.618C286.464 594.508 282.662 615.726 278.611 629.108C277.286 633.541 273.427 638.535 267.763 643.871C260.947 650.305 251.482 657.234 240.557 664.261C237.312 654.855 234.413 645.119 232.09 636.748C235.91 633.944 239.002 631.585 241.171 629.797C241.747 629.338 242.266 628.878 242.707 628.474C247.142 624.498 250.061 602.708 251.846 581.722C253.69 560.372 254.362 539.828 254.362 539.828L296.198 510.757Z" fill="black"/>
</g>
</g>
<path d="M303.043 481.979L244.305 472.293C246.108 472.591 257.512 447.323 260.114 438.326C263.704 425.902 266.508 402.123 264.063 386.747L264.046 386.636C263.046 380.083 267.773 373.989 274.381 373.478C279.064 373.115 283.763 372.933 288.478 372.923C297.8 372.812 307.127 373.363 316.387 374.565C328.28 376.435 341.714 380.041 341.714 380.041C341.714 380.041 343.567 380.834 342.718 393.617C341.875 405.64 337.356 444.801 303.043 481.979Z" fill="#263238"/>
<path d="M325.017 362.745C325.017 362.745 317.454 367.641 316.147 370.867C316.07 371.04 316.014 371.251 315.955 371.501C315.475 373.363 315.187 377.069 315.187 377.069C317.395 383.539 309.12 387.245 309.12 387.245C294.376 382.809 290.918 375.629 290.918 375.629C303.054 370.867 305.376 347.616 305.376 347.616L311.251 352.147L325.017 362.745Z" fill="#EBB376"/>
<path d="M336.464 710.97L321.012 676.529L299.992 629.665L296.274 621.527L280.014 586.016L260.68 543.782H216.495C222.276 563.37 233.84 584.962 245.846 604.035C257.61 622.748 269.79 639.029 277.28 648.629C281.777 654.389 284.572 657.73 284.572 657.73C293.322 677.982 304.481 698.893 315.355 717.682C319.802 725.331 324.18 732.635 328.35 739.378C343.777 764.344 356.086 781.724 356.086 781.724L365.604 775.948L336.464 710.97Z" fill="#EBB376"/>
<path d="M349.666 776.853C349.132 775.561 365.296 769.625 365.296 769.625C365.296 769.625 379.309 775.194 389.68 773.259C400.052 771.322 397.289 779.278 386.789 783.913C376.288 788.548 368.274 792.085 360.813 795.376C353.35 798.67 355.209 790.255 349.666 776.853Z" fill="#26ADB6"/>
<path d="M244.304 472.293C244.304 472.293 212.378 488.268 210.441 531.122C209.364 554.922 150.688 607.077 150.688 607.077C150.688 607.077 153.102 615.686 169.618 616.193C186.136 616.7 217.024 598.47 238.797 603.533C260.572 608.596 258.544 616.7 275.763 613.154C292.98 609.612 310.686 614.074 327.413 632.632C327.413 632.632 334.957 571.127 302.764 525.542C302.764 525.542 300.226 513.427 303.042 481.98L244.304 472.293Z" fill="#26ADB6"/>
<mask id="mask4_602_92514" style="mask-type:alpha" maskUnits="userSpaceOnUse" x="150" y="472" width="179" height="161">
<path d="M150.688 472.293H328.182V632.634H150.688V472.293Z" fill="white"/>
</mask>
<g mask="url(#mask4_602_92514)">
<g opacity="0.600006">
<path d="M244.304 472.293C244.304 472.293 212.378 488.268 210.441 531.122C209.364 554.922 150.688 607.077 150.688 607.077C150.688 607.077 153.102 615.686 169.618 616.193C186.136 616.7 217.024 598.47 238.797 603.533C260.572 608.596 258.544 616.7 275.763 613.154C292.98 609.612 310.686 614.074 327.413 632.632C327.413 632.632 334.957 571.127 302.764 525.542C302.764 525.542 300.226 513.427 303.042 481.98L244.304 472.293Z" fill="white"/>
</g>
</g>
<path d="M245.729 469.14L303.043 481.979L302.257 492.312L239.049 475.633L245.729 469.14Z" fill="#26ADB6"/>
<mask id="mask5_602_92514" style="mask-type:alpha" maskUnits="userSpaceOnUse" x="278" y="477" width="8" height="9">
<path d="M278.231 477.826H285.867V485.462H278.231V477.826Z" fill="white"/>
</mask>
<g mask="url(#mask5_602_92514)">
<g opacity="0.199997">
<path d="M285.867 481.644C285.867 483.754 284.158 485.463 282.05 485.463C279.94 485.463 278.231 483.754 278.231 481.644C278.231 479.536 279.94 477.827 282.05 477.827C284.158 477.827 285.867 479.536 285.867 481.644Z" fill="black"/>
</g>
</g>
<mask id="mask6_602_92514" style="mask-type:alpha" maskUnits="userSpaceOnUse" x="306" y="350" width="20" height="22">
<path d="M306.279 350.477H325.018V371.5H306.279V350.477Z" fill="white"/>
</mask>
<g mask="url(#mask6_602_92514)">
<g opacity="0.199997">
<path d="M325.017 362.746C325.017 362.746 317.454 367.642 316.147 370.867C316.07 371.04 316.014 371.251 315.955 371.501C304.936 363.072 306.336 350.477 306.336 350.477L311.251 352.147L325.017 362.746Z" fill="black"/>
</g>
</g>
<path d="M334.763 306.674C334.763 306.674 350.062 302.39 357.467 314.734C364.873 327.076 358.952 336.432 353.808 340.892" stroke="#263238" stroke-width="0.650667" stroke-miterlimit="10" stroke-linecap="round" stroke-linejoin="round"/>
<path d="M339.51 307.542C339.51 307.542 351.973 307.922 355.419 318.455C358.863 328.987 356.304 340.806 337.803 353.553C319.302 366.302 303.623 354.05 296.354 345.512C289.085 336.978 290.961 308.723 311.146 303.199C332.225 297.431 339.51 307.542 339.51 307.542Z" fill="#263238"/>
<path d="M327.621 311.059C343.463 313.217 347.409 322.392 346.345 338.878C345.016 359.477 338.517 373.357 319.302 366.301C293.207 356.718 301.311 307.474 327.621 311.059Z" fill="#EBB376"/>
<path d="M336.224 336.597C336.224 336.597 337.856 341.034 339.939 343.795C339.939 343.795 338.29 345.765 335.519 345.018L336.224 336.597Z" fill="#D58745"/>
<path d="M326.704 333.98C326.558 335.286 325.732 336.265 324.862 336.167C323.991 336.069 323.405 334.931 323.551 333.625C323.699 332.319 324.523 331.34 325.394 331.438C326.264 331.538 326.852 332.675 326.704 333.98Z" fill="#263238"/>
<path d="M325.024 331.461L327.988 330.667C327.988 330.667 326.306 332.898 325.024 331.461Z" fill="#263238"/>
<path d="M342.964 335.533C342.816 336.839 341.993 337.818 341.123 337.72C340.251 337.622 339.666 336.486 339.812 335.178C339.959 333.873 340.783 332.893 341.653 332.993C342.525 333.091 343.11 334.228 342.964 335.533Z" fill="#263238"/>
<path d="M341.285 333.015L344.249 332.22C344.249 332.22 342.565 334.451 341.285 333.015Z" fill="#263238"/>
<path d="M328.035 323.018C328.035 323.018 323.663 321.834 320.837 324.478" stroke="#263238" stroke-width="0.944" stroke-miterlimit="10" stroke-linecap="round" stroke-linejoin="round"/>
<path d="M339.642 323.917C339.642 323.917 342.582 323.262 345.778 326.079" stroke="#263238" stroke-width="0.944" stroke-miterlimit="10" stroke-linecap="round" stroke-linejoin="round"/>
<path d="M306.67 335.402C306.67 335.402 315.849 323.394 316.097 313.193C316.097 313.193 349.238 304.644 346.449 336.721C346.449 336.721 353.37 308.843 326.221 304.503C299.117 300.168 293.762 340.022 306.209 353.807C306.209 353.807 300.979 342.919 306.67 335.402Z" fill="#263238"/>
<path d="M308.802 339.098C309.044 336.533 306.999 331.858 302.186 331.729C297.203 331.595 293.49 341.354 305.371 345.442C307.078 346.027 308.297 344.451 308.802 339.098Z" fill="#EBB376"/>
<path d="M307.968 306.546C307.968 306.546 306.547 298.443 297.452 292.873C288.359 287.303 278.484 290.848 270.128 309.332C261.774 327.813 249.621 323.762 244.304 319.206C244.304 319.206 246.076 328.046 258.483 331.726C270.889 335.409 277.977 329.079 283.801 318.699C289.624 308.318 299.842 312.876 299.842 312.876L307.968 306.546Z" fill="#263238"/>
<path d="M334.668 349.752C333.831 351.773 333.072 355.531 333.072 355.531C332.719 355.523 332.367 355.517 332.016 355.49C327.231 355.272 325.085 353.588 324.158 351.791C323.653 350.804 323.524 349.773 323.53 348.936C323.526 347.968 323.745 347.277 323.745 347.277C326.21 348.909 330.653 349.458 333.038 349.65C334.036 349.742 334.668 349.752 334.668 349.752Z" fill="#263238"/>
<path d="M333.038 349.651L332.524 351.342C328.019 351.125 324.878 350.367 323.529 348.935C323.527 347.969 323.744 347.278 323.744 347.278C326.209 348.91 330.654 349.457 333.038 349.651Z" fill="white"/>
<path d="M332.015 355.492C327.233 355.271 325.086 353.589 324.157 351.79C325.783 351.928 327.732 352.276 329.419 353.088C330.714 353.704 331.503 354.599 332.015 355.492Z" fill="#DE5753"/>
<path d="M301.447 311.624C301.447 311.624 296.524 306.753 290.163 312.726C283.801 318.698 283.359 331.886 273.104 335.355" stroke="#263238" stroke-width="0.650667" stroke-miterlimit="10" stroke-linecap="round" stroke-linejoin="round"/>
<path d="M292.072 342.55C292.06 341.932 292.552 341.423 293.17 341.412C293.79 341.4 294.299 341.892 294.31 342.51C294.322 343.128 293.83 343.637 293.212 343.648C292.592 343.66 292.083 343.168 292.072 342.55ZM289.151 351.63C289.627 351.584 290.057 351.334 290.334 350.946L295.787 343.287C296.28 342.59 296.161 341.634 295.512 341.081L288.089 334.759C287.74 334.461 287.279 334.323 286.824 334.379L268.982 336.565C268.123 336.671 267.494 337.424 267.54 338.288L268.277 351.914C268.327 352.847 269.147 353.552 270.076 353.461L289.151 351.63Z" fill="#26ADB6"/>
<path d="M275.372 346.938C274.136 346.961 273.663 347.466 273.675 348.11C273.688 348.801 274.211 349.304 275.543 349.281C276.764 349.258 277.267 348.687 277.256 348.092C277.246 347.499 276.689 346.913 275.372 346.938ZM275.349 345.654C277.194 345.621 278.387 346.691 278.411 348.088C278.438 349.484 277.332 350.515 275.568 350.548C273.721 350.582 272.515 349.609 272.488 348.115C272.461 346.67 273.583 345.686 275.349 345.654M272.321 341.647L272.291 339.978L283.845 346.543L283.874 348.213L272.321 341.647ZM280.758 339.293C279.521 339.314 279.049 339.821 279.06 340.464C279.072 341.153 279.596 341.658 280.929 341.633C282.148 341.612 282.653 341.04 282.641 340.447C282.63 339.854 282.073 339.268 280.758 339.293ZM280.733 338.008C282.58 337.974 283.772 339.045 283.797 340.441C283.822 341.839 282.718 342.87 280.952 342.902C279.105 342.937 277.899 341.962 277.872 340.47C277.845 339.024 278.968 338.041 280.733 338.008Z" fill="white"/>
<path d="M294.287 342.423C294.287 342.423 306.225 336.592 306.279 326.827" stroke="white" stroke-width="0.666667" stroke-miterlimit="10" stroke-linecap="round" stroke-linejoin="round"/>
<path d="M304.436 326.08L317.175 301.905C317.175 301.905 334.628 302.558 348.491 305.215C348.491 305.215 353.423 309.109 350.672 311.624C347.92 314.141 342.038 312.325 340.317 310.872C338.597 309.418 337.729 305.797 337.729 305.797L334.669 305.405C334.669 305.405 337.526 311.766 333.039 311.624C328.553 311.482 320.324 308.635 318.742 304.457L304.87 328.991L304.436 326.08Z" fill="#26ADB6"/>
<path d="M269.093 374.847C290.918 371.5 292.903 438.963 301.447 454.659C309.989 470.357 363.394 510.758 363.394 510.758C363.394 510.758 380.813 509.13 384.503 510.758C388.193 512.386 388.598 524.034 385.582 524.034C382.567 524.034 363.093 527.496 359.285 525.764C355.48 524.034 353.595 517.207 353.595 517.207C353.595 517.207 297.454 489.092 285.867 465.294C276.209 445.449 267.141 411.148 264.572 398.977C262.003 386.806 263.566 375.695 269.093 374.847Z" fill="#EBB376"/>
<path d="M299.806 410.99L310.74 431.83C311.687 433.635 314.198 433.825 315.406 432.183L329.113 413.556C330.386 411.824 329.278 409.364 327.135 409.172L302.496 406.96C300.32 406.764 298.79 409.055 299.806 410.99Z" fill="#26ADB6"/>
<path d="M298.17 419.102V419.728C298.17 421.212 299.335 422.435 300.818 422.506L326.294 423.723C327.709 423.791 328.949 422.785 329.172 421.385C329.431 419.776 328.254 418.29 326.628 418.173L301.152 416.329C299.541 416.212 298.17 417.487 298.17 419.102Z" fill="white"/>
<path d="M627.384 441.397C628.724 441.336 629.861 442.37 629.922 443.711C629.984 445.049 628.949 446.185 627.611 446.249C626.27 446.312 625.134 445.277 625.07 443.935C625.009 442.597 626.044 441.46 627.384 441.397ZM607.516 435.62C607.643 436.647 608.211 437.567 609.069 438.143L626.015 449.499C627.551 450.529 629.623 450.212 630.782 448.77L644.036 432.285C644.662 431.507 644.933 430.503 644.783 429.516L638.948 390.959C638.668 389.104 636.999 387.783 635.129 387.937L605.623 390.369C603.601 390.536 602.125 392.353 602.376 394.367L607.516 435.62Z" fill="#407BFF"/>
<mask id="mask7_602_92514" style="mask-type:alpha" maskUnits="userSpaceOnUse" x="602" y="387" width="43" height="64">
<path d="M602.348 387.925H644.824V450.102H602.348V387.925Z" fill="white"/>
</mask>
<g mask="url(#mask7_602_92514)">
<g opacity="0.600006">
<path d="M627.385 441.398C628.725 441.337 629.861 442.371 629.923 443.712C629.984 445.05 628.949 446.186 627.611 446.25C626.271 446.313 625.134 445.278 625.071 443.936C625.01 442.598 626.044 441.461 627.385 441.398ZM607.516 435.621C607.643 436.648 608.211 437.568 609.07 438.144L626.016 449.5C627.552 450.53 629.623 450.213 630.783 448.771L644.037 432.286C644.663 431.508 644.933 430.504 644.784 429.517L638.949 390.96C638.668 389.105 637 387.784 635.13 387.938L605.623 390.37C603.602 390.537 602.125 392.354 602.377 394.368L607.516 435.621Z" fill="#0C939B"/>
</g>
</g>
<path d="M616.846 405.452C616.721 402.771 615.594 401.777 614.204 401.842C612.706 401.913 611.645 403.079 611.779 405.966C611.902 408.61 613.171 409.668 614.457 409.609C615.746 409.547 616.978 408.305 616.846 405.452ZM619.63 405.323C619.816 409.324 617.568 411.972 614.54 412.114C611.512 412.254 609.208 409.922 609.03 406.093C608.845 402.092 610.882 399.417 614.118 399.267C617.249 399.122 619.451 401.495 619.63 405.323ZM628.136 398.509L631.755 398.342L618.223 423.799L614.603 423.968L628.136 398.509ZM633.757 416.661C633.632 413.982 632.505 412.988 631.113 413.053C629.616 413.122 628.556 414.288 628.688 417.175C628.811 419.819 630.082 420.877 631.369 420.818C632.657 420.758 633.89 419.514 633.757 416.661M636.541 416.532C636.728 420.533 634.479 423.183 631.451 423.325C628.424 423.465 626.12 421.131 625.941 417.304C625.755 413.301 627.792 410.626 631.029 410.476C634.16 410.331 636.363 412.704 636.541 416.532" fill="white"/>
<path d="M627.71 443.824C627.71 443.824 628.465 487.702 598.803 497.574" stroke="#263238" stroke-width="1.33333" stroke-miterlimit="10" stroke-linecap="round" stroke-linejoin="round"/>
<path d="M538.815 484.204C538.732 484.204 538.648 484.196 538.562 484.181C537.824 484.052 520.446 480.894 515.666 472.908C514.318 470.656 514.053 468.243 514.878 465.731C515.704 463.21 518.235 460.023 525.598 459.142C538.082 457.638 558.975 463.763 562.876 470.049C563.295 470.723 563.09 471.612 562.414 472.031C561.738 472.455 560.851 472.244 560.43 471.568C557.376 466.647 537.991 460.545 525.939 462.003C522.706 462.389 518.64 463.506 517.614 466.63C517.054 468.333 517.225 469.905 518.137 471.428C522.242 478.29 538.896 481.316 539.065 481.347C539.848 481.485 540.37 482.232 540.23 483.015C540.107 483.712 539.5 484.204 538.815 484.204Z" fill="#26ADB6"/>
<path d="M607.439 463.273L625.927 581.002L567.276 599.198L538.112 592.219L528.562 483.979L554.806 466.18L607.439 463.273Z" fill="#13A06E"/>
<mask id="mask8_602_92514" style="mask-type:alpha" maskUnits="userSpaceOnUse" x="528" y="466" width="40" height="134">
<path d="M528.562 466.18H567.277V599.198H528.562V466.18Z" fill="white"/>
</mask>
<g mask="url(#mask8_602_92514)">
<g opacity="0.199997">
<path d="M567.276 599.198L554.806 466.18L528.561 483.979L538.111 592.219L567.276 599.198Z" fill="white"/>
</g>
</g>
<path d="M567.203 474.51C566.819 474.51 566.437 474.359 566.153 474.055C565.711 473.587 555.363 462.42 555.852 451.785C556.035 447.855 557.665 444.499 560.698 441.809C564.356 438.57 569.05 437.863 574.282 439.766C585.559 443.869 597.365 459.465 598.762 468.879C598.881 469.668 598.338 470.398 597.551 470.517C596.76 470.62 596.032 470.088 595.915 469.303C594.64 460.717 583.443 446.163 573.295 442.471C569.062 440.933 565.466 441.432 562.609 443.965C560.145 446.148 558.878 448.748 558.728 451.912C558.291 461.328 568.156 471.98 568.254 472.085C568.797 472.665 568.768 473.577 568.188 474.12C567.91 474.382 567.557 474.51 567.203 474.51Z" fill="#26ADB6"/>
<mask id="mask9_602_92514" style="mask-type:alpha" maskUnits="userSpaceOnUse" x="555" y="438" width="44" height="37">
<path d="M555.834 438.722H598.779V474.511H555.834V438.722Z" fill="white"/>
</mask>
<g mask="url(#mask9_602_92514)">
<g opacity="0.199997">
<path d="M567.203 474.51C566.819 474.51 566.437 474.359 566.153 474.055C565.711 473.587 555.363 462.42 555.852 451.785C556.035 447.855 557.665 444.499 560.698 441.809C564.356 438.57 569.05 437.863 574.282 439.766C585.559 443.869 597.365 459.465 598.762 468.879C598.881 469.668 598.338 470.398 597.551 470.517C596.76 470.62 596.032 470.088 595.915 469.303C594.64 460.717 583.443 446.163 573.295 442.471C569.062 440.933 565.466 441.432 562.609 443.965C560.145 446.148 558.878 448.748 558.728 451.912C558.291 461.328 568.156 471.98 568.254 472.085C568.797 472.665 568.768 473.577 568.188 474.12C567.91 474.382 567.557 474.51 567.203 474.51Z" fill="white"/>
</g>
</g>
<path d="M498.245 561.242C497.337 561.242 496.418 560.985 495.604 560.445L446.158 527.748C445.227 527.131 444.146 526.807 443.032 526.807H351.35L383.886 552.685C385.962 554.334 386.306 557.356 384.654 559.432C383.005 561.505 379.985 561.845 377.911 560.2L334.615 525.764C333.018 524.493 332.4 522.353 333.072 520.425C333.744 518.497 335.562 517.207 337.603 517.207H443.032C446.035 517.207 448.946 518.083 451.451 519.741L500.897 552.439C503.109 553.902 503.716 556.88 502.254 559.09C501.331 560.486 499.803 561.242 498.245 561.242Z" fill="#26ADB6"/>
<mask id="mask10_602_92514" style="mask-type:alpha" maskUnits="userSpaceOnUse" x="332" y="517" width="172" height="45">
<path d="M332.803 517.207H503.052V561.243H332.803V517.207Z" fill="white"/>
</mask>
<g mask="url(#mask10_602_92514)">
<g opacity="0.300003">
<path d="M498.245 561.242C497.337 561.242 496.418 560.985 495.604 560.445L446.158 527.748C445.227 527.131 444.146 526.807 443.032 526.807H351.35L383.886 552.685C385.962 554.334 386.306 557.356 384.654 559.432C383.005 561.505 379.985 561.845 377.911 560.2L334.615 525.764C333.018 524.493 332.4 522.353 333.072 520.425C333.744 518.497 335.562 517.207 337.603 517.207H443.032C446.035 517.207 448.946 518.083 451.451 519.741L500.897 552.439C503.109 553.902 503.716 556.88 502.254 559.09C501.331 560.486 499.803 561.242 498.245 561.242Z" fill="black"/>
</g>
</g>
<path d="M396.204 634.168L458.896 495.36L523.569 486.169L538.812 509.712L512.935 664.99L439.871 671.136L396.204 634.168Z" fill="#26ADB6"/>
<mask id="mask11_602_92514" style="mask-type:alpha" maskUnits="userSpaceOnUse" x="396" y="486" width="143" height="186">
<path d="M396.205 486.167H538.813V671.134H396.205V486.167Z" fill="white"/>
</mask>
<g mask="url(#mask11_602_92514)">
<g opacity="0.600006">
<path d="M396.204 634.168L458.896 495.36L523.569 486.169L538.812 509.712L512.935 664.99L439.871 671.136L396.204 634.168Z" fill="white"/>
</g>
</g>
<mask id="mask12_602_92514" style="mask-type:alpha" maskUnits="userSpaceOnUse" x="396" y="486" width="143" height="186">
<path d="M396.205 486.167H538.813V671.134H396.205V486.167Z" fill="white"/>
</mask>
<g mask="url(#mask12_602_92514)">
<g opacity="0.199997">
<path d="M523.569 486.169L484.073 617.585L396.204 634.168L439.871 671.136L512.935 664.99L538.812 509.712L523.569 486.169Z" fill="black"/>
</g>
</g>
<mask id="mask13_602_92514" style="mask-type:alpha" maskUnits="userSpaceOnUse" x="396" y="617" width="117" height="55">
<path d="M396.205 617.585H512.936V671.134H396.205V617.585Z" fill="white"/>
</mask>
<g mask="url(#mask13_602_92514)">
<g opacity="0.199997">
<path d="M396.204 634.168L484.073 617.585L512.935 664.99L439.871 671.136L396.204 634.168Z" fill="black"/>
</g>
</g>
<path d="M474.367 512.709C473.918 512.709 473.465 512.702 473.006 512.686C466.006 512.454 462.16 510.861 461.248 507.815C459.622 502.388 468.88 495.508 470.752 494.185C471.405 493.726 472.3 493.88 472.76 494.529C473.219 495.178 473.064 496.077 472.415 496.535C468.461 499.335 463.239 504.43 464.007 506.99C464.236 507.754 465.581 509.557 473.1 509.806C494.767 510.586 505.034 492.503 505.133 492.321C505.521 491.628 506.397 491.374 507.09 491.758C507.787 492.144 508.038 493.018 507.654 493.713C507.549 493.907 496.908 512.709 474.367 512.709Z" fill="#263238"/>
<path d="M516.934 675.069L512.934 535.932L583.579 523.531L616.336 535.932L611.382 662.752L578.343 679.491L516.934 675.069Z" fill="#263238"/>
<mask id="mask14_602_92514" style="mask-type:alpha" maskUnits="userSpaceOnUse" x="578" y="523" width="39" height="157">
<path d="M578.342 523.532H616.337V679.49H578.342V523.532Z" fill="white"/>
</mask>
<g mask="url(#mask14_602_92514)">
<g opacity="0.300003">
<path d="M583.58 523.532L578.342 679.492L611.383 662.753L616.337 535.933L583.58 523.532Z" fill="black"/>
</g>
</g>
<path d="M547.299 572.616C543.451 572.616 540.161 571.247 537.509 568.541C528.952 559.804 530.065 539.976 530.117 539.137C530.167 538.342 530.854 537.745 531.643 537.787C532.436 537.835 533.041 538.518 532.991 539.311C532.98 539.505 531.905 558.709 539.569 566.527C541.812 568.816 544.536 569.849 547.86 569.724C550.828 569.603 553.249 568.419 555.263 566.105C563.402 556.76 561.204 533.068 561.179 532.828C561.102 532.037 561.682 531.334 562.473 531.257C563.26 531.153 563.969 531.758 564.047 532.549C564.145 533.573 566.388 557.713 557.437 567.996C554.91 570.897 551.729 572.447 547.979 572.6C547.75 572.61 547.524 572.616 547.299 572.616Z" fill="#26ADB6"/>
<mask id="mask15_602_92514" style="mask-type:alpha" maskUnits="userSpaceOnUse" x="530" y="531" width="35" height="42">
<path d="M530.043 531.245H564.367V572.615H530.043V531.245Z" fill="white"/>
</mask>
<g mask="url(#mask15_602_92514)">
<g opacity="0.300003">
<path d="M547.299 572.616C543.451 572.616 540.161 571.247 537.509 568.541C528.952 559.804 530.065 539.976 530.117 539.137C530.167 538.342 530.854 537.745 531.643 537.787C532.436 537.835 533.041 538.518 532.991 539.311C532.98 539.505 531.905 558.709 539.569 566.527C541.812 568.816 544.536 569.849 547.86 569.724C550.828 569.603 553.249 568.419 555.263 566.105C563.402 556.76 561.204 533.068 561.179 532.828C561.102 532.037 561.682 531.334 562.473 531.257C563.26 531.153 563.969 531.758 564.047 532.549C564.145 533.573 566.388 557.713 557.437 567.996C554.91 570.897 551.729 572.447 547.979 572.6C547.75 572.61 547.524 572.616 547.299 572.616Z" fill="black"/>
</g>
</g>
<path d="M648.013 781.766C644.678 775.987 636.144 774.668 628.955 778.819C621.767 782.97 618.643 791.019 621.978 796.798C625.315 802.577 633.849 803.896 641.038 799.745C648.226 795.594 651.35 787.545 648.013 781.766Z" fill="#263238"/>
<path d="M467.675 778.819C460.486 782.97 457.362 791.018 460.699 796.798C464.034 802.577 472.569 803.898 479.757 799.745C486.946 795.594 490.069 787.545 486.733 781.766C483.397 775.987 474.865 774.668 467.675 778.819Z" fill="#263238"/>
<path d="M626.896 784.756H470.393C467.741 784.756 465.593 782.608 465.593 779.956C465.593 777.305 467.741 775.156 470.393 775.156H626.896C628.505 775.156 629.814 773.847 629.814 772.24V759.791C629.814 758.427 628.847 757.227 627.512 756.939L498.102 728.948C486.54 726.448 478.148 716.047 478.148 704.216V679.869C478.148 677.217 480.296 675.069 482.948 675.069C485.599 675.069 487.748 677.217 487.748 679.869V704.216C487.748 711.558 492.955 718.011 500.132 719.565L629.542 747.556C635.261 748.795 639.414 753.938 639.414 759.791V772.24C639.414 779.142 633.798 784.756 626.896 784.756Z" fill="#26ADB6"/>
<mask id="mask16_602_92514" style="mask-type:alpha" maskUnits="userSpaceOnUse" x="465" y="675" width="175" height="110">
<path d="M465.592 675.07H639.414V784.756H465.592V675.07Z" fill="white"/>
</mask>
<g mask="url(#mask16_602_92514)">
<g opacity="0.300003">
<path d="M626.896 784.756H470.393C467.741 784.756 465.593 782.608 465.593 779.956C465.593 777.305 467.741 775.156 470.393 775.156H626.896C628.505 775.156 629.814 773.847 629.814 772.24V759.791C629.814 758.427 628.847 757.227 627.512 756.939L498.102 728.948C486.54 726.448 478.148 716.047 478.148 704.216V679.869C478.148 677.217 480.296 675.069 482.948 675.069C485.599 675.069 487.748 677.217 487.748 679.869V704.216C487.748 711.558 492.955 718.011 500.132 719.565L629.542 747.556C635.261 748.795 639.414 753.938 639.414 759.791V772.24C639.414 779.142 633.798 784.756 626.896 784.756Z" fill="black"/>
</g>
</g>
<path d="M600.564 675.069L604.102 654.911H610.572L606.928 675.069H600.564ZM586.392 654.911H594.354L590.816 675.069H583.579L586.392 654.911ZM590.841 623.022H599.951L596.04 645.311H587.73L590.841 623.022ZM595.193 591.822H605.427L601.637 613.422H592.181L595.193 591.822ZM599.619 560.102H610.995L607.113 582.222H596.533L599.619 560.102ZM623.713 582.222H616.859L620.741 560.102H627.71L623.713 582.222ZM616.336 623.022L612.308 645.311H605.786L609.699 623.022H616.336ZM618.072 613.422H611.383L615.175 591.822H621.977L618.072 613.422ZM626.762 619.316C626.787 619.205 626.804 619.096 626.821 618.982L632.422 588.005L632.43 587.961L638.18 556.154C638.434 554.756 638.052 553.316 637.14 552.226C636.228 551.132 634.88 550.502 633.457 550.502H616.592H616.559H572.445C569.794 550.502 567.645 552.65 567.645 555.302C567.645 557.953 569.794 560.102 572.445 560.102H589.925L586.841 582.222H455.365C452.716 582.222 450.565 584.371 450.565 587.022C450.565 589.672 452.716 591.822 455.365 591.822H585.501L582.487 613.422H463.333C460.684 613.422 458.533 615.571 458.533 618.222C458.533 620.872 460.684 623.022 463.333 623.022H581.148L578.038 645.311H471.013C468.364 645.311 466.213 647.46 466.213 650.111C466.213 652.763 468.364 654.911 471.013 654.911H576.698L573.887 675.069H561.459C558.807 675.069 556.659 677.218 556.659 679.869C556.659 682.521 558.807 684.669 561.459 684.669H610.937C613.259 684.669 615.248 683.009 615.66 680.722L621.015 651.1C621.019 651.081 621.023 651.064 621.025 651.044L626.762 619.316Z" fill="#26ADB6"/>
<mask id="mask17_602_92514" style="mask-type:alpha" maskUnits="userSpaceOnUse" x="450" y="550" width="189" height="135">
<path d="M450.566 550.502H638.256V684.67H450.566V550.502Z" fill="white"/>
</mask>
<g mask="url(#mask17_602_92514)">
<g opacity="0.300003">
<path d="M600.564 675.069L604.102 654.911H610.572L606.928 675.069H600.564ZM586.392 654.911H594.354L590.816 675.069H583.579L586.392 654.911ZM590.841 623.022H599.951L596.04 645.311H587.73L590.841 623.022ZM595.193 591.822H605.427L601.637 613.422H592.181L595.193 591.822ZM599.619 560.102H610.995L607.113 582.222H596.533L599.619 560.102ZM623.713 582.222H616.859L620.741 560.102H627.71L623.713 582.222ZM616.336 623.022L612.308 645.311H605.786L609.699 623.022H616.336ZM618.072 613.422H611.383L615.175 591.822H621.977L618.072 613.422ZM626.762 619.316C626.787 619.205 626.804 619.096 626.821 618.982L632.422 588.005L632.43 587.961L638.18 556.154C638.434 554.756 638.052 553.316 637.14 552.226C636.228 551.132 634.88 550.502 633.457 550.502H616.592H616.559H572.445C569.794 550.502 567.645 552.65 567.645 555.302C567.645 557.953 569.794 560.102 572.445 560.102H589.925L586.841 582.222H455.365C452.716 582.222 450.565 584.371 450.565 587.022C450.565 589.672 452.716 591.822 455.365 591.822H585.501L582.487 613.422H463.333C460.684 613.422 458.533 615.571 458.533 618.222C458.533 620.872 460.684 623.022 463.333 623.022H581.148L578.038 645.311H471.013C468.364 645.311 466.213 647.46 466.213 650.111C466.213 652.763 468.364 654.911 471.013 654.911H576.698L573.887 675.069H561.459C558.807 675.069 556.659 677.218 556.659 679.869C556.659 682.521 558.807 684.669 561.459 684.669H610.937C613.259 684.669 615.248 683.009 615.66 680.722L621.015 651.1C621.019 651.081 621.023 651.064 621.025 651.044L626.762 619.316Z" fill="black"/>
</g>
</g>
<path d="M536.095 675.069L536.984 654.906H558.844L557.064 675.069H536.095ZM404.685 654.906H423.783L426.391 675.069H409.272L404.685 654.906ZM411.528 560.102L414.387 582.224H388.15L383.116 560.102H411.528ZM565.253 582.224H540.189L541.164 560.102H567.203L565.253 582.224ZM538.814 613.43L539.767 591.824H564.406L562.501 613.43H538.814ZM503.711 645.306V623.03H528.78L527.799 645.306H503.711ZM503.711 654.906H527.375L526.486 675.069H503.711V654.906ZM467.062 654.906H494.111V675.069H468.521L467.062 654.906ZM429.343 623.03H455.129L456.74 645.306H432.222L429.343 623.03ZM397.433 623.03H419.663L422.543 645.306H402.5L397.433 623.03ZM418.421 613.43H395.248L390.333 591.824H415.629L418.421 613.43ZM452.869 591.824L454.434 613.43H428.101L425.31 591.824H452.869ZM452.174 582.224H424.067L421.208 560.102H450.573L452.174 582.224ZM494.111 582.224H461.801L460.2 560.102H494.111V582.224ZM503.711 582.224V560.102H531.555L530.579 582.224H503.711ZM503.711 591.824H530.157L529.205 613.43H503.711V591.824ZM494.111 623.03V645.306H466.367L464.754 623.03H494.111ZM464.059 613.43L462.496 591.824H494.111V613.43H464.059ZM436.069 675.069L433.464 654.906H457.435L458.896 675.069H436.069ZM559.69 645.306H537.409L538.39 623.03H561.655L559.69 645.306ZM575.985 552.061C575.075 551.068 573.791 550.502 572.445 550.502H377.1C375.641 550.502 374.261 551.166 373.349 552.308C372.439 553.449 372.097 554.945 372.421 556.367L379.615 587.988C379.615 587.99 379.615 587.992 379.615 587.996L400.762 680.935C401.258 683.118 403.201 684.669 405.441 684.669H561.459C563.947 684.669 566.023 682.769 566.241 680.292L577.226 555.724C577.345 554.384 576.895 553.053 575.985 552.061" fill="#26ADB6"/>
<path d="M550.096 784.756H393.593C390.941 784.756 388.793 782.608 388.793 779.956C388.793 777.305 390.941 775.156 393.593 775.156H550.096C551.705 775.156 553.014 773.847 553.014 772.24V759.791C553.014 758.427 552.047 757.227 550.712 756.939L421.302 728.948C409.74 726.448 401.348 716.047 401.348 704.216V679.869C401.348 677.217 403.496 675.069 406.148 675.069C408.799 675.069 410.948 677.217 410.948 679.869V704.216C410.948 711.558 416.155 718.011 423.332 719.565L552.742 747.556C558.461 748.795 562.614 753.938 562.614 759.791V772.24C562.614 779.142 556.998 784.756 550.096 784.756Z" fill="#26ADB6"/>
<path d="M563.533 781.766C566.87 787.545 563.746 795.594 556.557 799.745C549.367 803.896 540.835 802.577 537.498 796.798C534.163 791.019 537.286 782.97 544.475 778.819C551.663 774.668 560.196 775.987 563.533 781.766Z" fill="#263238"/>
<path d="M554.118 785.162C555.755 788 554.223 791.949 550.694 793.988C547.165 796.023 542.978 795.376 541.34 792.54C539.702 789.703 541.236 785.753 544.763 783.714C548.292 781.679 552.48 782.324 554.118 785.162Z" fill="#26ADB6"/>
<path d="M402.253 781.766C405.59 787.545 402.466 795.594 395.277 799.745C388.087 803.896 379.555 802.577 376.218 796.798C372.883 791.019 376.006 782.97 383.195 778.819C390.383 774.668 398.916 775.987 402.253 781.766Z" fill="#263238"/>
<path d="M392.838 785.162C394.475 788 392.943 791.949 389.414 793.988C385.885 796.023 381.698 795.376 380.06 792.54C378.422 789.703 379.956 785.753 383.483 783.714C387.012 781.679 391.2 782.324 392.838 785.162Z" fill="#26ADB6"/>
<path d="M475.425 448.684C476.25 447.626 477.777 447.44 478.833 448.263C479.891 449.091 480.077 450.617 479.253 451.673C478.426 452.729 476.901 452.917 475.843 452.092C474.786 451.268 474.599 449.742 475.425 448.684ZM458.099 459.994C458.961 460.565 460.028 460.734 461.025 460.459L480.678 455.001C482.462 454.505 483.57 452.727 483.23 450.909L479.359 430.114C479.177 429.132 478.589 428.272 477.744 427.742L444.691 407.05C443.102 406.056 441.011 406.463 439.909 407.982L422.535 431.953C421.344 433.594 421.759 435.898 423.45 437.02L458.099 459.994Z" fill="#26ADB6"/>
<path d="M441.287 433.262C439.173 431.611 437.685 431.82 436.827 432.916C435.905 434.097 436.097 435.662 438.376 437.442C440.463 439.072 442.091 438.797 442.886 437.782C443.679 436.766 443.539 435.021 441.287 433.262ZM443.003 431.065C446.16 433.533 446.705 436.964 444.841 439.352C442.974 441.741 439.703 441.969 436.683 439.609C433.526 437.144 432.823 433.857 434.816 431.303C436.746 428.832 439.983 428.708 443.003 431.065M443.376 420.175L445.605 417.32L456.103 444.171L453.874 447.026L443.376 420.175ZM460.807 427.734C458.693 426.083 457.205 426.292 456.349 427.389C455.426 428.569 455.618 430.134 457.897 431.914C459.984 433.544 461.614 433.268 462.407 432.254C463.2 431.238 463.058 429.493 460.807 427.734ZM462.524 425.538C465.68 428.003 466.226 431.436 464.361 433.824C462.495 436.213 459.223 436.441 456.203 434.084C453.047 431.618 452.344 428.327 454.337 425.776C456.267 423.305 459.504 423.18 462.524 425.538Z" fill="white"/>
<path d="M554.623 584.687C553.367 585.157 551.968 584.522 551.497 583.266C551.025 582.01 551.662 580.611 552.916 580.14C554.174 579.67 555.573 580.305 556.044 581.561C556.514 582.815 555.879 584.217 554.623 584.687ZM575.305 584.078C574.867 583.139 574.046 582.439 573.051 582.156L553.436 576.558C551.658 576.049 549.785 576.986 549.124 578.716L541.578 598.476C541.221 599.409 541.273 600.448 541.719 601.341L559.12 636.239C559.957 637.919 561.952 638.662 563.683 637.94L591.015 626.558C592.887 625.777 593.733 623.596 592.875 621.756L575.305 584.078Z" fill="#26ADB6"/>
<mask id="mask18_602_92514" style="mask-type:alpha" maskUnits="userSpaceOnUse" x="541" y="576" width="53" height="63">
<path d="M541.344 576.42H593.211V638.215H541.344V576.42Z" fill="white"/>
</mask>
<g mask="url(#mask18_602_92514)">
<g opacity="0.600006">
<path d="M554.623 584.686C553.367 585.157 551.968 584.521 551.497 583.266C551.025 582.01 551.662 580.61 552.916 580.14C554.174 579.669 555.573 580.305 556.044 581.561C556.514 582.814 555.879 584.216 554.623 584.686ZM575.305 584.078C574.867 583.139 574.046 582.438 573.051 582.156L553.436 576.557C551.658 576.048 549.785 576.985 549.124 578.715L541.578 598.476C541.221 599.409 541.273 600.448 541.719 601.341L559.12 636.238C559.957 637.918 561.952 638.661 563.683 637.94L591.015 626.558C592.887 625.776 593.733 623.595 592.875 621.756L575.305 584.078Z" fill="white"/>
</g>
</g>
<path d="M575.699 615.654C576.64 618.167 578.018 618.764 579.324 618.275C580.726 617.75 581.378 616.314 580.363 613.609C579.434 611.13 577.899 610.512 576.694 610.967C575.486 611.418 574.697 612.979 575.699 615.654ZM573.09 616.633C571.682 612.883 573.007 609.671 575.845 608.605C578.683 607.54 581.594 609.053 582.939 612.641C584.345 616.393 583.229 619.563 580.196 620.701C577.26 621.802 574.436 620.22 573.09 616.633M567.09 625.73L563.697 627.001L568.751 598.618L572.141 597.345L567.09 625.73ZM556.161 610.184C557.104 612.695 558.482 613.294 559.786 612.806C561.19 612.278 561.841 610.844 560.825 608.137C559.896 605.658 558.363 605.044 557.156 605.495C555.95 605.948 555.159 607.511 556.161 610.184M553.552 611.163C552.145 607.411 553.469 604.199 556.307 603.133C559.145 602.072 562.058 603.585 563.402 607.171C564.809 610.921 563.693 614.095 560.66 615.231C557.724 616.333 554.898 614.751 553.552 611.163" fill="#263238"/>
<path d="M390.996 548.218C390.28 546.256 391.294 544.082 393.258 543.368C395.222 542.652 397.396 543.664 398.11 545.628C398.826 547.594 397.812 549.765 395.848 550.482C393.884 551.196 391.713 550.184 390.996 548.218ZM391.636 580.468C393.105 579.802 394.21 578.529 394.667 576.981L403.686 546.492C404.505 543.725 403.073 540.793 400.387 539.737L369.696 527.678C368.246 527.109 366.628 527.173 365.228 527.854L310.568 554.458C307.939 555.739 306.751 558.837 307.849 561.548L325.185 604.322C326.373 607.252 329.762 608.604 332.642 607.296L391.636 580.468Z" fill="#27556C"/>
<path d="M342.409 580.61C338.48 582.041 337.524 584.18 338.267 586.223C339.066 588.415 341.295 589.454 345.529 587.912C349.407 586.499 350.39 584.12 349.703 582.231C349.013 580.342 346.592 579.086 342.409 580.61ZM340.923 576.53C346.79 574.393 351.776 576.503 353.395 580.944C355.011 585.383 352.61 589.899 346.997 591.942C341.13 594.079 336.203 592.292 334.475 587.545C332.803 582.955 335.31 578.573 340.923 576.53M326.832 567.04L324.898 561.733L369.07 570.033L371.003 575.34L326.832 567.04ZM351.227 550.238C347.297 551.668 346.343 553.807 347.086 555.85C347.886 558.043 350.114 559.081 354.347 557.538C358.226 556.127 359.209 553.746 358.521 551.856C357.834 549.969 355.409 548.713 351.227 550.238ZM349.739 546.156C355.609 544.017 360.595 546.131 362.211 550.57C363.83 555.009 361.428 559.525 355.816 561.568C349.948 563.705 345.02 561.917 343.29 557.173C341.618 552.58 344.127 548.199 349.739 546.156Z" fill="white"/>
<path d="M396.204 545.315C396.204 545.315 458.161 532.895 467.509 507.069" stroke="#26ADB6" stroke-width="1.33333" stroke-miterlimit="10" stroke-linecap="round" stroke-linejoin="round"/>
<path d="M479.253 451.672C479.253 451.672 499.173 472.508 519.392 466.18" stroke="#263238" stroke-width="1.33333" stroke-miterlimit="10" stroke-linecap="round" stroke-linejoin="round"/>
<path d="M553.77 582.224C553.77 582.224 548.528 577.888 549.531 567.543" stroke="#407BFF" stroke-width="1.33333" stroke-miterlimit="10" stroke-linecap="round" stroke-linejoin="round"/>
</g>
</svg>
